REM MD5 10e528e7bc91cbddceac82db7643452f
FILE "Crime Killer (Germany) (Demo).bin" BINARY
  TRACK 01 MODE2/2352
    INDEX 01 00:00:00
  TRACK 02 AUDIO
    INDEX 00 12:05:74
    INDEX 01 12:07:74
  TRACK 03 AUDIO
    INDEX 00 14:03:59
    INDEX 01 14:05:59
REM LEADOUT 17:10:05
